# xmcd
#
# Track frame offsets: 
#        150
#        13995
#        25800
#        44239
#        63190
#        78707
#        95152
#        116829
#        129060
#        146285
#        155455
#        177245
#        195662
#        214150
#
# Disc length: 3083 seconds
#
# Revision: 4
# Processed by: cddbd v1.5.2PL0 Copyright (c) Steve Scherf et al.
# Submitted via: ExactAudioCopy v0.99pb5
#
DISCID=c70c090e
DTITLE=The Blues Band - Ready
DYEAR=1980
DGENRE=Blues
TTITLE0=Twenty Nine Ways
TTITLE1=Find Yourself Another Fool
TTITLE2=Noah Lewis Blues
TTITLE3=Hallelujah I Love Her So
TTITLE4=Treat Her Right
TTITLE5=Lonely Avenue
TTITLE6=That's All Right
TTITLE7=I'm Ready
TTITLE8=Green Stuff
TTITLE9=Hey, Hey, Little Girl
TTITLE10=Can't Hold On
TTITLE11=Sus Blues
TTITLE12=The Cat
TTITLE13=Nadine
EXTD=
EXTT0=
EXTT1=
EXTT2=
EXTT3=
EXTT4=
EXTT5=
EXTT6=
EXTT7=
EXTT8=
EXTT9=
EXTT10=
EXTT11=
EXTT12=
EXTT13=
PLAYORDER=
